<svg width="17" height="16" viewBox="0 0 17 16" fill="none" xmlns="http://www.w3.org/2000/svg">
<g clip-path="url(#clip0_635_40)">
<path d="M7.8335 2.6665H3.16683C2.81321 2.6665 2.47407 2.80698 2.22402 3.05703C1.97397 3.30708 1.8335 3.64622 1.8335 3.99984V13.3332C1.8335 13.6868 1.97397 14.0259 2.22402 14.276C2.47407 14.526 2.81321 14.6665 3.16683 14.6665H12.5002C12.8538 14.6665 13.1929 14.526 13.443 14.276C13.693 14.0259 13.8335 13.6868 13.8335 13.3332V8.6665" stroke="#515962" stroke-width="2" stroke-linecap="round" stroke-linejoin="round"/>
<path d="M12.8335 1.66665C13.0987 1.40144 13.4584 1.25244 13.8335 1.25244C14.2086 1.25244 14.5683 1.40144 14.8335 1.66665C15.0987 1.93187 15.2477 2.29158 15.2477 2.66665C15.2477 3.04173 15.0987 3.40144 14.8335 3.66665L8.50016 9.99999L5.8335 10.6667L6.50016 7.99999L12.8335 1.66665Z" stroke="#515962" stroke-width="2" stroke-linecap="round" stroke-linejoin="round"/>
</g>
<defs>
<clipPath id="clip0_635_40">
<rect width="16" height="16" fill="white" transform="translate(0.5)"/>
</clipPath>
</defs>
</svg>
