<svg xmlns="http://www.w3.org/2000/svg" width="256" height="256" fill="none" viewBox="0 0 256 256">
  <path fill="#fff" d="M0 0h256v256H0z"/>
  <g clip-path="url(#a)">
    <path fill="#777" d="M67.914 144.678c-8.419 0-15.27-6.815-15.27-15.188 0-8.374 6.851-15.188 15.27-15.188s15.27 6.814 15.27 15.188c0 8.373-6.851 15.188-15.27 15.188Zm0-25.927c-5.954 0-10.797 4.817-10.797 10.739 0 5.922 4.843 10.739 10.797 10.739 5.954 0 10.797-4.817 10.797-10.739 0-5.922-4.843-10.739-10.797-10.739Z"/>
    <path fill="#777" d="M94.891 169.803H41.04a2.23 2.23 0 0 1-2.237-2.224c0-15.094 12.346-27.377 27.522-27.377h3.277c15.175 0 27.521 12.28 27.521 27.377 0 1.229-1 2.224-2.236 2.224h.004Zm-51.507-4.449h49.163c-1.128-11.6-10.988-20.702-22.943-20.702h-3.277c-11.955 0-21.812 9.099-22.942 20.702Zm89.037-20.676c-8.418 0-15.269-6.815-15.269-15.188 0-8.374 6.851-15.188 15.269-15.188 8.419 0 15.27 6.814 15.27 15.188 0 8.373-6.851 15.188-15.27 15.188Zm0-25.927c-5.954 0-10.796 4.817-10.796 10.739 0 5.922 4.842 10.739 10.796 10.739s10.797-4.817 10.797-10.739c0-5.922-4.843-10.739-10.797-10.739Z"/>
    <path fill="#777" d="M159.399 169.803h-53.85a2.229 2.229 0 0 1-2.236-2.224c0-15.094 12.346-27.377 27.521-27.377h3.277c15.176 0 27.522 12.28 27.522 27.377a2.23 2.23 0 0 1-2.237 2.224h.003Zm-51.507-4.449h49.162c-1.128-11.6-10.988-20.702-22.943-20.702h-3.277c-11.955 0-21.812 9.099-22.942 20.702Zm89.272-20.676c-8.419 0-15.27-6.815-15.27-15.188 0-8.374 6.851-15.188 15.27-15.188s15.27 6.814 15.27 15.188c0 8.373-6.851 15.188-15.27 15.188Zm0-25.927c-5.954 0-10.797 4.817-10.797 10.739 0 5.922 4.843 10.739 10.797 10.739 5.954 0 10.796-4.817 10.796-10.739 0-5.922-4.842-10.739-10.796-10.739Z"/>
    <path fill="#777" d="M224.142 169.803h-53.85a2.229 2.229 0 0 1-2.236-2.224c0-15.094 12.345-27.377 27.521-27.377h3.277c15.176 0 27.522 12.28 27.522 27.377a2.23 2.23 0 0 1-2.237 2.224h.003Zm-51.507-4.449h49.162c-1.128-11.6-10.988-20.702-22.943-20.702h-3.277c-11.955 0-21.812 9.099-22.942 20.702Z"/>
    <path fill="#777" d="M229.705 59.858a2.82 2.82 0 0 1 2.825 2.81v130.664a2.82 2.82 0 0 1-2.825 2.81H26.295a2.82 2.82 0 0 1-2.825-2.81V62.667a2.82 2.82 0 0 1 2.825-2.81h203.41Zm0-4.684H26.295c-4.16 0-7.534 3.356-7.534 7.493v130.665c0 4.138 3.374 7.494 7.534 7.494h203.41c4.16 0 7.534-3.356 7.534-7.494V62.667c0-4.137-3.374-7.493-7.534-7.493Z"/>
    <path fill="#777" d="M237.239 76.016H22.529v4.683h214.71v-4.683ZM32.651 70.395a3.053 3.053 0 0 0 3.061-3.044 3.052 3.052 0 0 0-3.06-3.044 3.052 3.052 0 0 0-3.061 3.044 3.052 3.052 0 0 0 3.06 3.044Zm8.476 0c1.69 0 3.06-1.363 3.06-3.044a3.052 3.052 0 0 0-3.06-3.044 3.052 3.052 0 0 0-3.06 3.044 3.052 3.052 0 0 0 3.06 3.044Zm8.24 0c1.69 0 3.06-1.363 3.06-3.044a3.052 3.052 0 0 0-3.06-3.044 3.052 3.052 0 0 0-3.061 3.044 3.052 3.052 0 0 0 3.06 3.044Z"/>
  </g>
  <defs>
    <clipPath id="a">
      <path fill="#fff" d="M18.761 55.174h218.477v145.652H18.761z"/>
    </clipPath>
  </defs>
</svg>
