<svg width="16" height="17" viewBox="0 0 16 17" fill="none" xmlns="http://www.w3.org/2000/svg">
<g clip-path="url(#clip0_1133_1066)">
<path d="M11.1667 3.5V1.66667C11.1667 1.29848 10.8682 1 10.5 1H1.16667C0.79848 1 0.5 1.29847 0.5 1.66667V11C0.5 11.3682 0.79848 11.6667 1.16667 11.6667H3" stroke="#696DDB" stroke-width="1.5" stroke-linecap="round" stroke-linejoin="round"/>
<path d="M4.83337 5.99992C4.83337 5.63173 5.13185 5.33325 5.50004 5.33325H14.8334C15.2016 5.33325 15.5 5.63173 15.5 5.99992V15.3333C15.5 15.7015 15.2016 15.9999 14.8334 15.9999H5.50004C5.13185 15.9999 4.83337 15.7015 4.83337 15.3333V5.99992Z" stroke="#696DDB" stroke-width="1.5" stroke-linejoin="round"/>
</g>
<defs>
<clipPath id="clip0_1133_1066">
<rect width="16" height="16" fill="white" transform="translate(0 0.5)"/>
</clipPath>
</defs>
</svg>
