<svg width="22" height="22" viewBox="0 0 22 22" fill="none" xmlns="http://www.w3.org/2000/svg">
<path d="M15.6044 18.3333C15.6044 19.0406 15.8886 19.7189 16.3945 20.219C16.9005 20.719 17.5867 21 18.3022 21C19.0177 21 19.7039 20.719 20.2099 20.219C20.7158 19.7189 21.0001 19.0406 21.0001 18.3333V3.66667C21.0001 2.95942 20.7158 2.28115 20.2099 1.78105C19.7039 1.28095 19.0177 1 18.3022 1C17.5867 1 16.9005 1.28095 16.3945 1.78105C15.8886 2.28115 15.6044 2.95942 15.6044 3.66667V18.3333Z" stroke="#515962" stroke-width="1.5" stroke-linecap="round" stroke-linejoin="round"/>
<path d="M8.19421 18.3334C8.19421 19.0406 8.47845 19.7189 8.98439 20.219C9.49034 20.7191 10.1765 21.0001 10.8921 21.0001C11.6076 21.0001 12.2938 20.7191 12.7997 20.219C13.3057 19.7189 13.5899 19.0406 13.5899 18.3334V13.4445C13.5899 12.7373 13.3057 12.059 12.7997 11.5589C12.2938 11.0588 11.6076 10.7778 10.8921 10.7778C10.1765 10.7778 9.49034 11.0588 8.98439 11.5589C8.47845 12.059 8.19421 12.7373 8.19421 13.4445V18.3334Z" stroke="#515962" stroke-width="1.5" stroke-linecap="round" stroke-linejoin="round"/>
<path d="M1 18.3332C1 18.6834 1.06978 19.0301 1.20536 19.3537C1.34094 19.6772 1.53966 19.9712 1.79018 20.2188C2.0407 20.4664 2.33811 20.6628 2.66542 20.7968C2.99274 20.9309 3.34356 20.9998 3.69784 20.9998C4.05213 20.9998 4.40294 20.9309 4.73026 20.7968C5.05758 20.6628 5.35499 20.4664 5.6055 20.2188C5.85602 19.9712 6.05474 19.6772 6.19032 19.3537C6.3259 19.0301 6.39568 18.6834 6.39568 18.3332C6.39568 17.983 6.3259 17.6362 6.19032 17.3127C6.05474 16.9891 5.85602 16.6952 5.6055 16.4476C5.35499 16.1999 5.05758 16.0035 4.73026 15.8695C4.40294 15.7355 4.05213 15.6665 3.69784 15.6665C3.34356 15.6665 2.99274 15.7355 2.66542 15.8695C2.33811 16.0035 2.0407 16.1999 1.79018 16.4476C1.53966 16.6952 1.34094 16.9891 1.20536 17.3127C1.06978 17.6362 1 17.983 1 18.3332Z" stroke="#515962" stroke-width="1.5" stroke-linecap="round" stroke-linejoin="round"/>
</svg>
