<svg width="20" height="20" viewBox="0 0 20 20" fill="none" xmlns="http://www.w3.org/2000/svg">
<g clip-path="url(#clip0_633_9196)">
<path d="M7.91667 14.1665L10 19.3749L12.0167 14.1665C13.6017 13.676 14.9582 12.6332 15.84 11.2277C16.7217 9.82221 17.0701 8.14709 16.8221 6.50654C16.574 4.866 15.7458 3.36881 14.4879 2.28684C13.2301 1.20487 11.6259 0.609863 9.96667 0.609863C8.30748 0.609863 6.70329 1.20487 5.44541 2.28684C4.18753 3.36881 3.35936 4.866 3.11128 6.50654C2.8632 8.14709 3.21166 9.82221 4.0934 11.2277C4.97513 12.6332 6.33166 13.676 7.91667 14.1665Z" stroke="#515962" stroke-width="1.5" stroke-linecap="round" stroke-linejoin="round"/>
<path d="M5.625 7.55811C5.625 8.71843 6.08594 9.83123 6.90641 10.6517C7.72688 11.4722 8.83968 11.9331 10 11.9331C11.1603 11.9331 12.2731 11.4722 13.0936 10.6517C13.9141 9.83123 14.375 8.71843 14.375 7.55811C14.375 6.39778 13.9141 5.28498 13.0936 4.46451C12.2731 3.64404 11.1603 3.18311 10 3.18311C8.83968 3.18311 7.72688 3.64404 6.90641 4.46451C6.08594 5.28498 5.625 6.39778 5.625 7.55811Z" stroke="#515962" stroke-width="1.5" stroke-linecap="round" stroke-linejoin="round"/>
<path d="M11.6667 7.55827C11.6667 7.8879 11.569 8.21014 11.3858 8.48422C11.2027 8.7583 10.9424 8.97192 10.6378 9.09807C10.3333 9.22421 9.99819 9.25722 9.67489 9.19291C9.35159 9.1286 9.05462 8.96987 8.82153 8.73678C8.58844 8.50369 8.42971 8.20672 8.3654 7.88342C8.30109 7.56012 8.3341 7.22501 8.46024 6.92046C8.58639 6.61592 8.80001 6.35562 9.07409 6.17249C9.34817 5.98935 9.67041 5.8916 10 5.8916C10.4421 5.8916 10.866 6.0672 11.1786 6.37976C11.4911 6.69232 11.6667 7.11624 11.6667 7.55827Z" stroke="#515962" stroke-width="1.5" stroke-linecap="round" stroke-linejoin="round"/>
</g>
<defs>
<clipPath id="clip0_633_9196">
<rect width="20" height="20" fill="white"/>
</clipPath>
</defs>
</svg>
