<svg width="20" height="20" viewBox="0 0 20 20" fill="none" xmlns="http://www.w3.org/2000/svg">
<g clip-path="url(#clip0_633_9195)">
<path d="M9.99996 10.9999L6.59996 17.4999C6.41035 17.8971 6.14086 18.2508 5.80833 18.5391C5.47581 18.8274 5.08739 19.044 4.66737 19.1753C4.24734 19.3067 3.80474 19.35 3.36722 19.3025C2.9297 19.2551 2.50666 19.1179 2.12456 18.8996C1.74246 18.6812 1.4095 18.3864 1.1465 18.0336C0.883498 17.6807 0.696105 17.2774 0.596034 16.8488C0.495964 16.4203 0.485366 15.9757 0.564904 15.5428C0.644442 15.11 0.812405 14.6982 1.0583 14.3332L7.22496 2.49991C7.43477 2.13518 7.71445 1.8154 8.04799 1.55889C8.38154 1.30238 8.76239 1.11417 9.16877 1.00503C9.57514 0.895887 9.99904 0.867963 10.4162 0.922852C10.8334 0.977742 11.2357 1.11437 11.6 1.32491" stroke="#515962" stroke-width="1.5" stroke-linecap="round" stroke-linejoin="round"/>
<path d="M0.625 15.9334C0.625 16.7821 0.962142 17.596 1.56226 18.1961C2.16237 18.7963 2.97631 19.1334 3.825 19.1334C4.67369 19.1334 5.48763 18.7963 6.08774 18.1961C6.68786 17.596 7.025 16.7821 7.025 15.9334C7.025 15.0847 6.68786 14.2708 6.08774 13.6707C5.48763 13.0705 4.67369 12.7334 3.825 12.7334C2.97631 12.7334 2.16237 13.0705 1.56226 13.6707C0.962142 14.2708 0.625 15.0847 0.625 15.9334Z" stroke="#515962" stroke-width="1.5" stroke-linecap="round" stroke-linejoin="round"/>
<path d="M13.3999 17.4998C13.6064 17.8706 13.8846 18.1966 14.2183 18.4589C14.552 18.7212 14.9345 18.9144 15.3436 19.0274C15.7527 19.1404 16.1802 19.1709 16.6012 19.1172C17.0222 19.0634 17.4283 18.9264 17.7959 18.7141C18.1634 18.5019 18.4851 18.2187 18.7421 17.8809C18.9991 17.5432 19.1864 17.1577 19.293 16.7469C19.3997 16.3361 19.4235 15.9081 19.3632 15.488C19.3028 15.0679 19.1595 14.664 18.9416 14.2998L12.7749 2.49981C12.3305 1.81367 11.6402 1.32366 10.8459 1.13033C10.0516 0.936995 9.21338 1.05501 8.50332 1.46015C7.79325 1.8653 7.26517 2.52684 7.02745 3.30903C6.78972 4.09122 6.86038 4.93474 7.22492 5.66648L13.3999 17.4998Z" stroke="#515962" stroke-width="1.5" stroke-linecap="round" stroke-linejoin="round"/>
</g>
<defs>
<clipPath id="clip0_633_9195">
<rect width="20" height="20" fill="white"/>
</clipPath>
</defs>
</svg>
