<svg width="20" height="20" viewBox="0 0 20 20" fill="none" xmlns="http://www.w3.org/2000/svg">
<g clip-path="url(#clip0_633_9197)">
<path d="M7.80336 15.4169L7.02669 16.1936C6.32342 16.8968 5.36959 17.2919 4.37502 17.2919C3.38046 17.2919 2.42662 16.8968 1.72336 16.1936C1.02009 15.4903 0.625 14.5365 0.625 13.5419C0.625 12.5473 1.02009 11.5935 1.72336 10.8902L5.70086 6.9119C6.36771 6.24354 7.26213 5.85131 8.20551 5.81355C9.14889 5.77579 10.0718 6.09526 10.7899 6.70818C11.5081 7.3211 11.9686 8.18235 12.0795 9.11995C12.1905 10.0575 11.9436 11.0025 11.3884 11.7661" stroke="#515962" stroke-width="1.5" stroke-linecap="round" stroke-linejoin="round"/>
<path d="M12.3484 4.63937L12.9734 4.01437C13.6766 3.31111 14.6305 2.91602 15.625 2.91602C16.6196 2.91602 17.5734 3.31111 18.2767 4.01437C18.98 4.71764 19.3751 5.67147 19.3751 6.66604C19.3751 7.66061 18.98 8.61444 18.2767 9.3177L14.2992 13.2952C13.6322 13.9633 12.7378 14.3552 11.7945 14.3927C10.8512 14.4303 9.92847 14.1107 9.21051 13.4977C8.49254 12.8847 8.03218 12.0235 7.92134 11.086C7.81049 10.1485 8.05732 9.2037 8.61254 8.44021" stroke="#515962" stroke-width="1.5" stroke-linecap="round" stroke-linejoin="round"/>
</g>
<defs>
<clipPath id="clip0_633_9197">
<rect width="20" height="20" fill="white"/>
</clipPath>
</defs>
</svg>
