<svg width="20" height="20" viewBox="0 0 20 20" fill="none" xmlns="http://www.w3.org/2000/svg">
<g clip-path="url(#clip0_633_9199)">
<path d="M10 8.12598C4.8225 8.12598 0.625 6.44681 0.625 4.37598C0.625 2.30515 4.8225 0.625977 10 0.625977C15.1775 0.625977 19.375 2.30431 19.375 4.37598C19.375 5.48431 18.1725 6.48098 16.26 7.16681" stroke="#515962" stroke-width="1.5" stroke-linecap="round" stroke-linejoin="round"/>
<path d="M19.375 6.90098V4.37598" stroke="#515962" stroke-width="1.5" stroke-linecap="round" stroke-linejoin="round"/>
<path d="M0.625 4.37598V9.37599C0.625 11.0035 3.21833 12.3893 6.8425 12.9077" stroke="#515962" stroke-width="1.5" stroke-linecap="round" stroke-linejoin="round"/>
<path d="M0.625 9.37598V14.376C0.625 16.1893 3.84417 17.7026 8.125 18.0501" stroke="#515962" stroke-width="1.5" stroke-linecap="round" stroke-linejoin="round"/>
<path d="M14.3741 19.376C17.1356 19.376 19.3741 17.1374 19.3741 14.376C19.3741 11.6146 17.1356 9.37598 14.3741 9.37598C11.6127 9.37598 9.37415 11.6146 9.37415 14.376C9.37415 17.1374 11.6127 19.376 14.3741 19.376Z" stroke="#515962" stroke-width="1.5" stroke-linecap="round" stroke-linejoin="round"/>
<path d="M12.8116 13.4383C12.8115 13.1292 12.903 12.8271 13.0746 12.57C13.2461 12.313 13.4901 12.1126 13.7756 11.9942C14.0611 11.8758 14.3753 11.8448 14.6785 11.9049C14.9816 11.9651 15.2601 12.1138 15.4787 12.3323C15.6973 12.5508 15.8462 12.8292 15.9066 13.1323C15.967 13.4355 15.9361 13.7497 15.8178 14.0353C15.6996 14.3208 15.4993 14.5649 15.2423 14.7366C14.9854 14.9083 14.6832 15 14.3741 15" stroke="#515962" stroke-width="1.5" stroke-linecap="round" stroke-linejoin="round"/>
<path d="M14.3741 17.501C14.2016 17.501 14.0616 17.3611 14.0616 17.1885C14.0616 17.0159 14.2016 16.876 14.3741 16.876" stroke="#515962" stroke-width="1.5"/>
<path d="M14.3741 17.501C14.5467 17.501 14.6866 17.3611 14.6866 17.1885C14.6866 17.0159 14.5467 16.876 14.3741 16.876" stroke="#515962" stroke-width="1.5"/>
</g>
<defs>
<clipPath id="clip0_633_9199">
<rect width="20" height="20" fill="white"/>
</clipPath>
</defs>
</svg>
