<svg width="20" height="20" viewBox="0 0 20 20" fill="none" xmlns="http://www.w3.org/2000/svg">
<g clip-path="url(#clip0_633_9194)">
<path d="M1.55664 8.74658C1.55664 9.4925 1.85296 10.2079 2.3804 10.7353C2.90785 11.2628 3.62322 11.5591 4.36914 11.5591C5.11506 11.5591 5.83043 11.2628 6.35788 10.7353C6.88532 10.2079 7.18164 9.4925 7.18164 8.74658C7.18164 8.00066 6.88532 7.28529 6.35788 6.75784C5.83043 6.2304 5.11506 5.93408 4.36914 5.93408C3.62322 5.93408 2.90785 6.2304 2.3804 6.75784C1.85296 7.28529 1.55664 8.00066 1.55664 8.74658Z" stroke="#515962" stroke-width="1.5" stroke-linecap="round" stroke-linejoin="round"/>
<path d="M6.62336 13.34C5.6386 12.849 4.52049 12.6929 3.43891 12.8954C2.35732 13.0978 1.37138 13.6478 0.630859 14.4617" stroke="#515962" stroke-width="1.5" stroke-linecap="round" stroke-linejoin="round"/>
<path d="M12.8184 8.74658C12.8184 9.11593 12.8911 9.48165 13.0324 9.82288C13.1738 10.1641 13.381 10.4742 13.6421 10.7353C13.9033 10.9965 14.2133 11.2037 14.5546 11.345C14.8958 11.4863 15.2615 11.5591 15.6309 11.5591C16.0002 11.5591 16.3659 11.4863 16.7072 11.345C17.0484 11.2037 17.3584 10.9965 17.6196 10.7353C17.8808 10.4742 18.0879 10.1641 18.2293 9.82288C18.3706 9.48165 18.4434 9.11593 18.4434 8.74658C18.4434 8.00066 18.147 7.28529 17.6196 6.75784C17.0922 6.2304 16.3768 5.93408 15.6309 5.93408C14.8849 5.93408 14.1696 6.2304 13.6421 6.75784C13.1147 7.28529 12.8184 8.00066 12.8184 8.74658Z" stroke="#515962" stroke-width="1.5" stroke-linecap="round" stroke-linejoin="round"/>
<path d="M19.3691 14.4617C18.6274 13.6471 17.6398 13.0972 16.5566 12.8957C15.4735 12.6943 14.3542 12.8524 13.3691 13.3459" stroke="#515962" stroke-width="1.5" stroke-linecap="round" stroke-linejoin="round"/>
<path d="M4.57751 3.854C5.04466 2.94052 5.76402 2.18019 6.65025 1.66322C7.53649 1.14625 8.55242 0.894323 9.57751 0.937333C10.6026 0.894323 11.6185 1.14625 12.5048 1.66322C13.391 2.18019 14.1104 2.94052 14.5775 3.854" stroke="#515962" stroke-width="1.5" stroke-linecap="round" stroke-linejoin="round"/>
<path d="M12.0775 3.85417H14.9942V0.9375" stroke="#515962" stroke-width="1.5" stroke-linecap="round" stroke-linejoin="round"/>
<path d="M11.25 13.4375H9.5542C9.29456 13.4377 9.04307 13.5282 8.84287 13.6935C8.64267 13.8589 8.50624 14.0887 8.45697 14.3436C8.4077 14.5985 8.44866 14.8627 8.57284 15.0907C8.69701 15.3187 8.89666 15.4964 9.13753 15.5933L10.8575 16.2817C11.0984 16.3786 11.2981 16.5563 11.4222 16.7843C11.5464 17.0123 11.5874 17.2765 11.5381 17.5314C11.4888 17.7863 11.3524 18.0161 11.1522 18.1815C10.952 18.3468 10.7005 18.4373 10.4409 18.4375H8.75003" stroke="#515962" stroke-width="1.5" stroke-linecap="round" stroke-linejoin="round"/>
<path d="M9.99829 13.4375V12.8125" stroke="#515962" stroke-width="1.5" stroke-linecap="round" stroke-linejoin="round"/>
<path d="M9.99829 19.0625V18.4375" stroke="#515962" stroke-width="1.5" stroke-linecap="round" stroke-linejoin="round"/>
</g>
<defs>
<clipPath id="clip0_633_9194">
<rect width="20" height="20" fill="white"/>
</clipPath>
</defs>
</svg>
