<svg width="20" height="20" viewBox="0 0 20 20" fill="none" xmlns="http://www.w3.org/2000/svg">
<g clip-path="url(#clip0_733_6592)">
<path d="M5.83333 16.4583H1.45833C1.23732 16.4583 1.02536 16.3705 0.869078 16.2143C0.712797 16.058 0.625 15.846 0.625 15.625V1.45833C0.625 1.23732 0.712797 1.02536 0.869078 0.869078C1.02536 0.712797 1.23732 0.625 1.45833 0.625H13.9583C14.1793 0.625 14.3913 0.712797 14.5476 0.869078C14.7039 1.02536 14.7917 1.23732 14.7917 1.45833V9.375" stroke="#515962" stroke-width="1.5" stroke-linecap="round" stroke-linejoin="round"/>
<path d="M0.625 13.125H6.45833" stroke="#515962" stroke-width="1.5" stroke-linecap="round" stroke-linejoin="round"/>
<path d="M19.375 15.625C19.375 15.625 17.5 19.375 13.75 19.375C10 19.375 8.125 15.625 8.125 15.625C8.125 15.625 10 11.875 13.75 11.875C17.5 11.875 19.375 15.625 19.375 15.625Z" stroke="#515962" stroke-width="1.5" stroke-linecap="round" stroke-linejoin="round"/>
<path d="M11.875 15.625C11.875 15.8712 11.9235 16.115 12.0177 16.3425C12.112 16.57 12.2501 16.7767 12.4242 16.9508C12.5983 17.1249 12.805 17.263 13.0325 17.3573C13.26 17.4515 13.5038 17.5 13.75 17.5C13.9962 17.5 14.24 17.4515 14.4675 17.3573C14.695 17.263 14.9017 17.1249 15.0758 16.9508C15.2499 16.7767 15.388 16.57 15.4823 16.3425C15.5765 16.115 15.625 15.8712 15.625 15.625C15.625 15.3788 15.5765 15.135 15.4823 14.9075C15.388 14.68 15.2499 14.4733 15.0758 14.2992C14.9017 14.1251 14.695 13.987 14.4675 13.8927C14.24 13.7985 13.9962 13.75 13.75 13.75C13.5038 13.75 13.26 13.7985 13.0325 13.8927C12.805 13.987 12.5983 14.1251 12.4242 14.2992C12.2501 14.4733 12.112 14.68 12.0177 14.9075C11.9235 15.135 11.875 15.3788 11.875 15.625Z" stroke="#515962" stroke-width="1.5" stroke-linecap="round" stroke-linejoin="round"/>
</g>
<defs>
<clipPath id="clip0_733_6592">
<rect width="20" height="20" fill="white"/>
</clipPath>
</defs>
</svg>
