<svg width="20" height="20" viewBox="0 0 20 20" fill="none" xmlns="http://www.w3.org/2000/svg">
<g clip-path="url(#clip0_733_6591)">
<path d="M18.1333 6.87744V1.87744C18.1333 1.54592 18.0016 1.22798 17.7672 0.993558C17.5328 0.759137 17.2148 0.627441 16.8833 0.627441H1.8833C1.55178 0.627441 1.23384 0.759137 0.999417 0.993558C0.764997 1.22798 0.633301 1.54592 0.633301 1.87744V15.6274C0.633301 15.959 0.764997 16.2769 0.999417 16.5113C1.23384 16.7457 1.55178 16.8774 1.8833 16.8774H6.8833" stroke="#515962" stroke-width="1.5" stroke-linecap="round" stroke-linejoin="round"/>
<path d="M0.633301 4.37744H18.1333" stroke="#515962" stroke-width="1.5" stroke-linecap="round" stroke-linejoin="round"/>
<path d="M14.3874 16.1516C14.4277 16.4413 14.4006 16.7364 14.3082 17.0139C14.2159 17.2914 14.0608 17.5438 13.8549 17.7516L12.7783 18.8283C12.3966 19.1834 11.892 19.3766 11.3707 19.3672C10.8495 19.3579 10.3522 19.1467 9.98346 18.7781C9.61475 18.4095 9.40341 17.9122 9.39389 17.391C9.38438 16.8697 9.57743 16.3651 9.93244 15.9833L11.0091 14.9066C11.2125 14.7047 11.4589 14.5516 11.73 14.4586C12.0011 14.3657 12.2896 14.3354 12.5741 14.3699" stroke="#515962" stroke-width="1.5" stroke-linecap="round" stroke-linejoin="round"/>
<path d="M16.1567 14.3817C16.4465 14.4221 16.7417 14.395 17.0194 14.3027C17.297 14.2103 17.5496 14.0551 17.7575 13.8492L18.8333 12.7725C19.186 12.3904 19.3772 11.8866 19.3668 11.3667C19.3563 10.8468 19.1452 10.3511 18.7775 9.98337C18.4098 9.61566 17.9141 9.40449 17.3941 9.39408C16.8742 9.38367 16.3705 9.57482 15.9883 9.92751L14.9167 11.0042C14.7146 11.2074 14.5613 11.4539 14.4683 11.725C14.3754 11.996 14.3452 12.2847 14.38 12.5692" stroke="#515962" stroke-width="1.5" stroke-linecap="round" stroke-linejoin="round"/>
<path d="M12.5083 16.2524L16.2583 12.5024" stroke="#515962" stroke-width="1.5" stroke-linecap="round" stroke-linejoin="round"/>
</g>
<defs>
<clipPath id="clip0_733_6591">
<rect width="20" height="20" fill="white"/>
</clipPath>
</defs>
</svg>
