<svg xmlns="http://www.w3.org/2000/svg" width="256" height="256" fill="none" viewBox="0 0 256 256">
  <path fill="#fff" d="M0 0h256v256H0z"/>
  <g clip-path="url(#a)">
    <path fill="#777" d="M186.553 144.604c-10.912-10.891-25.225-17.151-40.552-17.796 11.926-6.454 20.04-19.061 20.04-33.525 0-21.012-17.128-38.109-38.183-38.109s-38.184 17.097-38.184 38.11c0 14.47 8.124 27.082 20.059 33.534-15.222.705-29.434 6.957-40.284 17.786-11.537 11.514-17.89 26.82-17.89 43.102v10.83a2.288 2.288 0 0 0 2.291 2.287h148.3a2.288 2.288 0 0 0 2.291-2.287v-10.83c0-16.282-6.353-31.59-17.888-43.102Zm-92.298-51.32c0-18.492 15.073-33.536 33.6-33.536s33.601 15.044 33.601 33.535c0 18.491-13.928 32.363-31.464 33.465h-4.276c-17.536-1.105-31.463-15.691-31.463-33.465h.002Zm105.603 102.968H56.142v-8.544c0-31.089 25.341-56.381 56.491-56.381h12.943a37.473 37.473 0 0 0 4.559 0h13.23c31.15 0 56.491 25.292 56.491 56.381v8.544h.002Z"/>
  </g>
  <defs>
    <clipPath id="a">
      <path fill="#fff" d="M51.559 55.174h152.883v145.652H51.559z"/>
    </clipPath>
  </defs>
</svg>
