<svg width="22" height="22" viewBox="0 0 22 22" fill="none" xmlns="http://www.w3.org/2000/svg">
<path d="M2.20345 1H19.5368C19.5368 1 20.8701 1 20.8701 2.33333V19.6667C20.8701 19.6667 20.8701 21 19.5368 21H2.20345C2.20345 21 0.870117 21 0.870117 19.6667V2.33333C0.870117 2.33333 0.870117 1 2.20345 1Z" stroke="#515962" stroke-width="1.5" stroke-linecap="round" stroke-linejoin="round"/>
<path d="M3.99643 9.86418C3.70212 10.167 3.53748 10.5726 3.53748 10.9948C3.53748 11.4171 3.70212 11.8227 3.99643 12.1255C5.37509 13.5077 7.83998 15.6668 10.8702 15.6668C13.9004 15.6668 16.3662 13.5086 17.7458 12.1264C18.0401 11.8236 18.2047 11.418 18.2047 10.9957C18.2047 10.5735 18.0401 10.1679 17.7458 9.86506C16.3653 8.48284 13.8978 6.32373 10.8702 6.32373C7.84265 6.32373 5.37598 8.48106 3.99643 9.86418Z" stroke="#515962" stroke-width="1.5" stroke-linecap="round" stroke-linejoin="round"/>
<path d="M8.87012 10.9922C8.87012 11.5226 9.08083 12.0313 9.4559 12.4064C9.83098 12.7815 10.3397 12.9922 10.8701 12.9922C11.4006 12.9922 11.9093 12.7815 12.2843 12.4064C12.6594 12.0313 12.8701 11.5226 12.8701 10.9922C12.8701 10.4618 12.6594 9.95305 12.2843 9.57797C11.9093 9.2029 11.4006 8.99219 10.8701 8.99219C10.3397 8.99219 9.83098 9.2029 9.4559 9.57797C9.08083 9.95305 8.87012 10.4618 8.87012 10.9922Z" stroke="#515962" stroke-width="1.5" stroke-linecap="round" stroke-linejoin="round"/>
</svg>
